CSPredictedFLsDeGroote.mot
version=1
nRows=18
nColumns=39
inDegrees=no
endheader
time	tibant_l	tibpost_l	gasmed_l	gaslat_l	soleus_l	edl_l	ehl_l	fdl_l	fhl_l	perbrev_l	perlong_l	bflh_l	bfsh_l	recfem_l	semimem_l	semiten_l	vasint_l	vaslat_l	vasmed_l	tibant_r	tibpost_r	gasmed_r	gaslat_r	soleus_r	edl_r	ehl_r	fdl_r	fhl_r	perbrev_r	perlong_r	bflh_r	bfsh_r	recfem_r	semimem_r	semiten_r	vasint_r	vaslat_r	vasmed_r
26.23999977	0.35669279	0.38586980	0.54552966	0.53309220	0.39785972	0.49734887	0.45693201	0.50058186	0.46817997	0.23986147	0.47454646	0.39269972	0.22655421	0.50879049	0.38608310	0.43302751	0.29260245	0.30567068	0.28164589	0.36632290	0.38355803	0.53624916	0.52709436	0.38847634	0.50521749	0.46501261	0.49842647	0.46464258	0.23789379	0.47238502	0.42552376	0.23279481	0.47843051	0.41839960	0.47061664	0.28066483	0.29362586	0.26978353
26.25000000	0.35618728	0.38598996	0.54565936	0.53271586	0.39832544	0.49696058	0.45650017	0.50069392	0.46836039	0.23993054	0.47466019	0.39162895	0.22547346	0.51048064	0.38455242	0.43138307	0.29428107	0.30740276	0.28336176	0.36627701	0.38357171	0.53628898	0.52695340	0.38852596	0.50517923	0.46497262	0.49843904	0.46466130	0.23790368	0.47239631	0.42476204	0.23241048	0.47940606	0.41763002	0.46967566	0.28151602	0.29440135	0.27061656
26.26000023	0.35593373	0.38604572	0.54544550	0.53207338	0.39854938	0.49677688	0.45627820	0.50074106	0.46844417	0.23994726	0.47471750	0.39073458	0.22455111	0.51195240	0.38329250	0.43004519	0.29583362	0.30894202	0.28485504	0.36639336	0.38353699	0.53613144	0.52661496	0.38840011	0.50527614	0.46507403	0.49840713	0.46461383	0.23787859	0.47236764	0.42396641	0.23201568	0.48040166	0.41683185	0.46870071	0.28237733	0.29519731	0.27146214
26.27000046	0.35593772	0.38604325	0.54491484	0.53119940	0.39853573	0.49679986	0.45625997	0.50072807	0.46843120	0.23992316	0.47472054	0.38998342	0.22368559	0.51323575	0.38224351	0.42882434	0.29732534	0.31038219	0.28622538	0.36680198	0.38341379	0.53562605	0.52595085	0.38795537	0.50561661	0.46543038	0.49829376	0.46444559	0.23778996	0.47226647	0.42317310	0.23165970	0.48133290	0.41605943	0.46775627	0.28314209	0.29591307	0.27221483
26.28000069	0.35619539	0.38599661	0.54409838	0.53012818	0.39830649	0.49702960	0.45643121	0.50067097	0.46832675	0.23987511	0.47467649	0.38938341	0.22289163	0.51430285	0.38143981	0.42780870	0.29868260	0.31167838	0.28747162	0.36757010	0.38317689	0.53468907	0.52488607	0.38710761	0.50625759	0.46610117	0.49807522	0.46412307	0.23762119	0.47207430	0.42240399	0.23137175	0.48215684	0.41534346	0.46687827	0.28375214	0.29648995	0.27281642
26.29000092	0.35669777	0.38589841	0.54300284	0.52886659	0.39786595	0.49746653	0.45680073	0.50058848	0.46813294	0.23980285	0.47458294	0.38892218	0.22205482	0.51522082	0.38074911	0.42690900	0.29996055	0.31291530	0.28867468	0.36863223	0.38283762	0.53338325	0.52347702	0.38590968	0.50714606	0.46703064	0.49776098	0.46366316	0.23738310	0.47180420	0.42166027	0.23114237	0.48289469	0.41467437	0.46605453	0.28423256	0.29694775	0.27329081
26.29999924	0.35740066	0.38576472	0.54167193	0.52738118	0.39726135	0.49801785	0.45733774	0.50046104	0.46788001	0.23971803	0.47445470	0.38855159	0.22103740	0.51613498	0.38001075	0.42595118	0.30127135	0.31420207	0.28996342	0.36978233	0.38245443	0.53193998	0.52193230	0.38457820	0.50811106	0.46803987	0.49740440	0.46314633	0.23711897	0.47150594	0.42092454	0.23092249	0.48362640	0.41400415	0.46522656	0.28468850	0.29738501	0.27374154
26.30999947	0.35831416	0.38557607	0.54011619	0.52569675	0.39644921	0.49873045	0.45806843	0.50027740	0.46755260	0.23959342	0.47427258	0.38824642	0.21979168	0.51707011	0.37913337	0.42484272	0.30271822	0.31565413	0.29143587	0.37075132	0.38211831	0.53068644	0.52056050	0.38342804	0.50892657	0.46889248	0.49709031	0.46269512	0.23689120	0.47124988	0.42017078	0.23064420	0.48445508	0.41326723	0.46431431	0.28525904	0.29793593	0.27430618
26.31999969	0.35942987	0.38532251	0.53829587	0.52375275	0.39541903	0.49960518	0.45900342	0.50003201	0.46715003	0.23941198	0.47403198	0.38802266	0.21840382	0.51801360	0.37817845	0.42374653	0.30421412	0.31718516	0.29300332	0.37132668	0.38191283	0.52989942	0.51962024	0.38273257	0.50941199	0.46939981	0.49689773	0.46242017	0.23675363	0.47109571	0.41937584	0.23025492	0.48545587	0.41241100	0.46325341	0.28604510	0.29870144	0.27508506
26.32999992	0.36072400	0.38499036	0.53618830	0.52149451	0.39416641	0.50061882	0.46013969	0.49971169	0.46667773	0.23915721	0.47372878	0.38784829	0.21691267	0.51897776	0.37716937	0.42266044	0.30578816	0.31883520	0.29460996	0.37143463	0.38187376	0.52968425	0.51922393	0.38260105	0.50950313	0.46949506	0.49686107	0.46236798	0.23672763	0.47106659	0.41852668	0.22974537	0.48663756	0.41141972	0.46202469	0.28705314	0.29969350	0.27608526
26.34000015	0.36222234	0.38458741	0.53374779	0.51887655	0.39265752	0.50178212	0.46145788	0.49928540	0.46613061	0.23883611	0.47337502	0.38772982	0.21541046	0.51987684	0.37618434	0.42162204	0.30738604	0.32054234	0.29622117	0.37113979	0.38198006	0.52996331	0.51930463	0.38295951	0.50925422	0.46923494	0.49696079	0.46251005	0.23679851	0.47114596	0.41762310	0.22915436	0.48794177	0.41031983	0.46066141	0.28819349	0.30082878	0.27721813
26.35000038	0.36398178	0.38406649	0.53085709	0.51591074	0.39076674	0.50327188	0.46301794	0.49877891	0.46542868	0.23841710	0.47292531	0.38765883	0.21389341	0.52068830	0.37525764	0.42065108	0.30903009	0.32229358	0.29785705	0.37058380	0.38217732	0.53055805	0.51971626	0.38362879	0.50878543	0.46874490	0.49714553	0.46277419	0.23693094	0.47129446	0.41667703	0.22855009	0.48927435	0.40916809	0.45923370	0.28932846	0.30197084	0.27834651
26.36000061	0.36587918	0.38347045	0.52758175	0.51258403	0.38863179	0.50491226	0.46470544	0.49821913	0.46462938	0.23795033	0.47242337	0.38762301	0.21232539	0.52142584	0.37438911	0.41972727	0.31071073	0.32404602	0.29949203	0.36991215	0.38241011	0.53129148	0.52025568	0.38442564	0.50822020	0.46815395	0.49736306	0.46308675	0.23708874	0.47147191	0.41570902	0.22800244	0.49054343	0.40803021	0.45782235	0.29033086	0.30298844	0.27934337
26.37000084	0.36790735	0.38280100	0.52400160	0.50899392	0.38627091	0.50668752	0.46650276	0.49760592	0.46374094	0.23744510	0.47187802	0.38757271	0.21060319	0.52213347	0.37347779	0.41873485	0.31251031	0.32585981	0.30117989	0.36922717	0.38264149	0.53204626	0.52073348	0.38522545	0.50764483	0.46755233	0.49757868	0.46339831	0.23724730	0.47165069	0.41474295	0.22756130	0.49168447	0.40696123	0.45649496	0.29112086	0.30379546	0.28012887
26.37999916	0.37004071	0.38206401	0.52036923	0.50548470	0.38374376	0.50856167	0.46834576	0.49696097	0.46278787	0.23693417	0.47130254	0.38752180	0.20870788	0.52278143	0.37249881	0.41765940	0.31438786	0.32769758	0.30292109	0.36857879	0.38285503	0.53277022	0.52126712	0.38597068	0.50710130	0.46698382	0.49777713	0.46368670	0.23739521	0.47181791	0.41380042	0.22724815	0.49266681	0.40599525	0.45529374	0.29167235	0.30436122	0.28067708
26.38999939	0.37214103	0.38126320	0.51683497	0.50213253	0.38113067	0.51044035	0.47020888	0.49631792	0.46175030	0.23636614	0.47069898	0.38746315	0.20671605	0.52335691	0.37148672	0.41655916	0.31624788	0.32949162	0.30462712	0.36797905	0.38304788	0.53345311	0.52183878	0.38664991	0.50659943	0.46645880	0.49795589	0.46394792	0.23753016	0.47197089	0.41289750	0.22705929	0.49348795	0.40514490	0.45423493	0.29200131	0.30469948	0.28100395
26.39999962	0.37406051	0.38051379	0.51359552	0.49903509	0.37872756	0.51210910	0.47191152	0.49571365	0.46078634	0.23586240	0.47016209	0.38740316	0.20477977	0.52380121	0.37051582	0.41552192	0.31793866	0.33112091	0.30615383	0.36741793	0.38322437	0.53410572	0.52244383	0.38727677	0.50613058	0.46596819	0.49811909	0.46418762	0.23765483	0.47211257	0.41204298	0.22697391	0.49416554	0.40440503	0.45331296	0.29214913	0.30485168	0.28115082
26.40999985	0.37578923	0.37979621	0.51067734	0.49623445	0.37652797	0.51358449	0.47346294	0.49513090	0.45988137	0.23541731	0.46968639	0.38735613	0.20295204	0.52414399	0.36962560	0.41458830	0.31946900	0.33261862	0.30753204	0.36687845	0.38339052	0.53474349	0.52307969	0.38787165	0.50568038	0.46549714	0.49827233	0.46441385	0.23777327	0.47224745	0.41123852	0.22696382	0.49472836	0.40375853	0.45250773	0.29216656	0.30486962	0.28116813
